<?xml version="1.0" ?><svg enable-background="new 0 0 512 512" id="Layer_1" version="1.1" viewBox="0 0 512 512" xml:space="preserve" xmlns="http://www.w3.org/2000/svg" xmlns:xlink="http://www.w3.org/1999/xlink"><g><g><linearGradient gradientUnits="userSpaceOnUse" id="SVGID_1_" x1="0.0000038" x2="512" y1="256" y2="256"><stop offset="0" style="stop-color:#8DC63F"/><stop offset="1" style="stop-color:#76B83F"/></linearGradient><circle cx="256" cy="256" fill="url(#SVGID_1_)" r="256"/><linearGradient gradientUnits="userSpaceOnUse" id="SVGID_2_" x1="42.6666679" x2="469.3333435" y1="256.0005188" y2="256.0005188"><stop offset="0" style="stop-color:#76B83F"/><stop offset="1" style="stop-color:#8DC63F"/></linearGradient><path d="M256,469.3338623c-117.6314697,0-213.3333282-95.7018738-213.3333282-213.3333435    S138.3685303,42.6671982,256,42.6671982c117.6357422,0,213.3333435,95.7018661,213.3333435,213.333313    S373.6357422,469.3338623,256,469.3338623z" fill="url(#SVGID_2_)"/></g><g><polygon opacity="0.3" points="259.2000122,173.6389313 259.2000122,269.8832092 334.9077454,269.8832092     334.9077454,260.2832031 268.7999878,260.2832031 268.7999878,173.6389313   "/><path d="M382.4949341,244.9546661l-9.4778748,1.5093384    c0.9162598,5.7653351,1.3829346,11.6623993,1.3829346,17.5359955c0,60.8762817-49.5257568,110.3999939-110.3999939,110.3999939    c-60.8746643,0-110.3999939-49.5237122-110.3999939-110.3999939S203.1253357,153.6000061,264,153.6000061    c38.13974,0,72.8976135,19.3637238,93.0837402,51.1077271l-38.4512024-7.9685364l-1.9498596,9.4026642l53.6437073,11.1189423    l11.1168213-53.6437378l-9.3989563-1.9498596l-7.6149292,36.7333221C342.3850708,164.5839996,304.9909363,144,264,144    c-66.1690674,0-120,53.8309326-120,120c0,66.1685486,53.8309326,120,120,120c66.1685181,0,120-53.8314514,120-120    C384,257.625061,383.4933167,251.2170715,382.4949341,244.9546661z" opacity="0.3"/></g><g><polygon fill="#FFFFFF" points="251.1999969,165.6389313 251.1999969,261.8832092 326.9077454,261.8832092     326.9077454,252.2832031 260.7999878,252.2832031 260.7999878,165.6389313   "/><path d="M374.4949341,236.9546661l-9.4778748,1.5093384    c0.9162598,5.7653351,1.3829346,11.6623993,1.3829346,17.5359955c0,60.8762817-49.5257568,110.3999939-110.3999939,110.3999939    c-60.8746643,0-110.3999939-49.5237122-110.3999939-110.3999939S195.1253357,145.6000061,256,145.6000061    c38.13974,0,72.8976135,19.3637238,93.0837402,51.1077271l-38.4512024-7.9685364l-1.9498596,9.4026642l53.6437073,11.1189423    l11.1168213-53.6437378l-9.3989563-1.9498596l-7.6149292,36.7333221C334.3850708,156.5839996,296.9909363,136,256,136    c-66.1690674,0-120,53.8309326-120,120c0,66.1685486,53.8309326,120,120,120c66.1685181,0,120-53.8314514,120-120    C376,249.625061,375.4933167,243.2170715,374.4949341,236.9546661z" fill="#FFFFFF"/></g></g></svg>